<svg xmlns="http://www.w3.org/2000/svg" aria-hidden="true" focusable="false" data-prefix="fas" data-icon="times" class="svg-inline--fa fa-times fa-w-11" role="img" viewBox="0 0 352 512" width="100%" height="100%"  xmlns:xlink="http://www.w3.org/1999/xlink"><rect id="svgEditorBackground" x="0" y="0" width="352" height="512" style="fill:none;stroke:none;"/><path d="M242.72,256l100.06999999999996,-100.07c12.279999999999973,-12.280000000000001,12.279999999999973,-32.19,0,-44.47999999999999l-22.24000000000001,-22.239999999999995c-12.279999999999973,-12.280000000000001,-32.19,-12.280000000000001,-44.48000000000002,0l-100.06999999999994,100.06999999999998l-100.07,-100.07000000000001c-12.280000000000001,-12.280000000000001,-32.19,-12.280000000000001,-44.48,0l-22.24000000000001,22.24000000000001c-12.28,12.280000000000001,-12.28,32.18999999999998,0,44.480000000000004l100.07,100.07l-100.07,100.07c-12.28,12.279999999999973,-12.28,32.19,0,44.48000000000002l22.24,22.24000000000001c12.279999999999998,12.279999999999973,32.2,12.279999999999973,44.47999999999999,0l100.07000000000001,-100.07l100.07,100.07c12.279999999999973,12.279999999999973,32.19999999999999,12.279999999999973,44.48000000000002,0l22.24000000000001,-22.24000000000001c12.279999999999973,-12.279999999999973,12.279999999999973,-32.19,0,-44.48000000000002l-100.07000000000002,-100.07Z" style="fill:#BB4800;"/></svg>